<mxfile host="app.diagrams.net" agent="Mozilla/5.0 (Windows NT 10.0; Win64; x64) AppleWebKit/537.36 (KHTML, like Gecko) Chrome/136.0.0.0 Safari/537.36" version="27.0.6">
  <diagram name="PÃ¡gina-1" id="YQGbedEfdo9G52x-IARW">
    <mxGraphModel dx="872" dy="431" grid="1" gridSize="10" guides="1" tooltips="1" connect="1" arrows="1" fold="1" page="1" pageScale="1" pageWidth="827" pageHeight="1169" math="0" shadow="0">
      <root>
        <mxCell id="0" />
        <mxCell id="1" parent="0" />
        <mxCell id="bi0m0viv5bB7FVvdDmNU-4" value="" style="edgeStyle=orthogonalEdgeStyle;rounded=0;orthogonalLoop=1;jettySize=auto;html=1;" edge="1" parent="1" source="bi0m0viv5bB7FVvdDmNU-2" target="bi0m0viv5bB7FVvdDmNU-3">
          <mxGeometry relative="1" as="geometry" />
        </mxCell>
        <mxCell id="bi0m0viv5bB7FVvdDmNU-2" value="Inicio" style="ellipse;whiteSpace=wrap;html=1;aspect=fixed;" vertex="1" parent="1">
          <mxGeometry x="370" y="190" width="80" height="80" as="geometry" />
        </mxCell>
        <mxCell id="bi0m0viv5bB7FVvdDmNU-6" value="" style="edgeStyle=orthogonalEdgeStyle;rounded=0;orthogonalLoop=1;jettySize=auto;html=1;" edge="1" parent="1" source="bi0m0viv5bB7FVvdDmNU-3" target="bi0m0viv5bB7FVvdDmNU-5">
          <mxGeometry relative="1" as="geometry" />
        </mxCell>
        <mxCell id="bi0m0viv5bB7FVvdDmNU-3" value="Ingresamos la entrada de texto &quot;Ingresa aqui el radio del circulo: &quot;" style="shape=parallelogram;perimeter=parallelogramPerimeter;whiteSpace=wrap;html=1;fixedSize=1;fillColor=#fff2cc;strokeColor=#d6b656;" vertex="1" parent="1">
          <mxGeometry x="270" y="320" width="280" height="80" as="geometry" />
        </mxCell>
        <mxCell id="bi0m0viv5bB7FVvdDmNU-8" value="" style="edgeStyle=orthogonalEdgeStyle;rounded=0;orthogonalLoop=1;jettySize=auto;html=1;" edge="1" parent="1" source="bi0m0viv5bB7FVvdDmNU-5" target="bi0m0viv5bB7FVvdDmNU-7">
          <mxGeometry relative="1" as="geometry" />
        </mxCell>
        <mxCell id="bi0m0viv5bB7FVvdDmNU-5" value="&amp;nbsp;Creamos la variable area_circulo y realizamos la operacion para obtener el area del cuadrado." style="rounded=1;whiteSpace=wrap;html=1;fillColor=#dae8fc;strokeColor=#6c8ebf;" vertex="1" parent="1">
          <mxGeometry x="320" y="440" width="180" height="80" as="geometry" />
        </mxCell>
        <mxCell id="bi0m0viv5bB7FVvdDmNU-10" value="" style="edgeStyle=orthogonalEdgeStyle;rounded=0;orthogonalLoop=1;jettySize=auto;html=1;" edge="1" parent="1" source="bi0m0viv5bB7FVvdDmNU-7" target="bi0m0viv5bB7FVvdDmNU-9">
          <mxGeometry relative="1" as="geometry" />
        </mxCell>
        <mxCell id="bi0m0viv5bB7FVvdDmNU-7" value="Devolvemos al usario la repuesta acerca del area del circulo" style="shape=parallelogram;perimeter=parallelogramPerimeter;whiteSpace=wrap;html=1;fixedSize=1;rounded=1;fillColor=#fff2cc;strokeColor=#d6b656;" vertex="1" parent="1">
          <mxGeometry x="310" y="560" width="200" height="80" as="geometry" />
        </mxCell>
        <mxCell id="bi0m0viv5bB7FVvdDmNU-9" value="FIN" style="ellipse;whiteSpace=wrap;html=1;rounded=1;" vertex="1" parent="1">
          <mxGeometry x="370" y="680" width="80" height="80" as="geometry" />
        </mxCell>
      </root>
    </mxGraphModel>
  </diagram>
</mxfile>
